<svg xmlns="http://www.w3.org/2000/svg" width="34.927" height="41.913" viewBox="0 0 34.927 41.913">
  <g id="files-and-folders" transform="translate(-2)">
    <path id="Path_153" data-name="Path 153" d="M36.927,4.8a4.8,4.8,0,0,0-4.8-4.8H6.8A4.8,4.8,0,0,0,2,4.8V37.11a4.8,4.8,0,0,0,4.8,4.8H32.125a4.8,4.8,0,0,0,4.8-4.8Z" fill="#fa897b"/>
    <path id="Path_154" data-name="Path 154" d="M19.464,0H6.8A4.8,4.8,0,0,0,2,4.8V37.11a4.8,4.8,0,0,0,4.8,4.8H19.464Z" fill="#d0e6a5"/>
    <g id="Group_10" data-name="Group 10" transform="translate(7.239 26.194)">
      <path id="Path_155" data-name="Path 155" d="M11.31,25.478A1.31,1.31,0,0,1,10,24.168V16.31A1.31,1.31,0,0,1,11.31,15h2.183a3.493,3.493,0,0,1,0,6.985H12.62v2.183A1.31,1.31,0,0,1,11.31,25.478Zm1.31-6.112h.873a.873.873,0,0,0,0-1.746H12.62Z" transform="translate(-1.268 -14.999)" fill="#fff"/>
      <path id="Path_156" data-name="Path 156" d="M8.493,15A3.5,3.5,0,0,0,5,18.493v5.676a1.31,1.31,0,0,0,2.62,0V21.985H9.366v2.183a1.31,1.31,0,1,0,2.62,0V18.493A3.5,3.5,0,0,0,8.493,15ZM7.62,19.366v-.873a.873.873,0,0,1,1.746,0v.873Z" transform="translate(-5 -14.999)" fill="#fff"/>
      <path id="Path_157" data-name="Path 157" d="M18.267,20.24l3.285-2.955A1.311,1.311,0,1,0,19.8,15.336L17.62,17.3V16.31a1.31,1.31,0,0,0-2.62,0v7.859a1.31,1.31,0,1,0,2.62,0v-.987L19.8,25.143a1.311,1.311,0,1,0,1.753-1.949Z" transform="translate(2.464 -14.999)" fill="#fff"/>
    </g>
    <path id="Path_158" data-name="Path 158" d="M16.517,18H10v3.929a1.31,1.31,0,1,0,2.62,0V19.746h.873A3.5,3.5,0,0,0,16.517,18Z" transform="translate(5.971 13.435)" fill="#fff"/>
    <path id="Path_159" data-name="Path 159" d="M11.985,18H5v3.929a1.31,1.31,0,1,0,2.62,0V19.746H9.366v2.183a1.31,1.31,0,1,0,2.62,0Z" transform="translate(2.239 13.435)" fill="#fff"/>
    <path id="Path_160" data-name="Path 160" d="M18.267,18H15v3.929a1.31,1.31,0,1,0,2.62,0v-.987L19.8,22.9a1.311,1.311,0,0,0,1.753-1.949Z" transform="translate(9.703 13.435)" fill="#fff"/>
  </g>
</svg>
