<svg xmlns="http://www.w3.org/2000/svg" xmlns:xlink="http://www.w3.org/1999/xlink" width="489" height="489" viewBox="0 0 489 489">
  <defs>
    <clipPath id="clip-path">
      <circle id="Ellipse_10" data-name="Ellipse 10" cx="244.5" cy="244.5" r="244.5" fill="#fff" stroke="#707070" stroke-width="1"/>
    </clipPath>
  </defs>
  <g id="Mask_Group_2" data-name="Mask Group 2" clip-path="url(#clip-path)">
    <g id="Layer_2" data-name="Layer 2" transform="translate(-233.884 78.102)">
      <g id="Layer_2-2" data-name="Layer 2" transform="translate(279.884 -86.195)">
        <g id="Layer_1" data-name="Layer 1" transform="translate(0 0)">
          <path id="Path_56" data-name="Path 56" d="M0,.29H643.143v433.5H0Z" transform="translate(0 -0.29)" fill="#f3f3f3" fill-rule="evenodd"/>
          <path id="Path_57" data-name="Path 57" d="M454.16,112.56h75.408" transform="translate(-89.827 -22.495)" fill="none" stroke="#fff" stroke-linecap="round" stroke-linejoin="round" stroke-width="12.98"/>
          <path id="Path_58" data-name="Path 58" d="M454.16,143.29h67.145" transform="translate(-89.827 -28.573)" fill="none" stroke="#fff" stroke-linecap="round" stroke-linejoin="round" stroke-width="12.98"/>
          <path id="Path_59" data-name="Path 59" d="M200.09,434.962V1.47" transform="translate(-39.575 -0.523)" fill="none" stroke="#dfdfdf" stroke-linecap="round" stroke-width="2.93"/>
          <path id="Path_60" data-name="Path 60" d="M400.18,434.962V1.47" transform="translate(-79.15 -0.523)" fill="none" stroke="#dfdfdf" stroke-linecap="round" stroke-width="2.93"/>
          <path id="Path_61" data-name="Path 61" d="M600.27,434.962V1.47" transform="translate(-118.725 -0.523)" fill="none" stroke="#dfdfdf" stroke-linecap="round" stroke-width="2.93"/>
          <path id="Path_62" data-name="Path 62" d="M350.39,742.666l1.42,16.67,14.616.353-2.711-17.649Z" transform="translate(-69.302 -146.998)" fill="#e49d75" fill-rule="evenodd"/>
          <path id="Path_63" data-name="Path 63" d="M182.687,705.77,175.9,728.681l6.931,7.22,12.3-20.055Z" transform="translate(-34.791 -139.824)" fill="#e49d75" fill-rule="evenodd"/>
          <path id="Path_64" data-name="Path 64" d="M348.995,758.886l-.265,12.354,38.314-.233c.265.176.072-6.057.072-6.057l-22.8-6.241Z" transform="translate(-68.974 -150.295)" fill-rule="evenodd"/>
          <path id="Path_65" data-name="Path 65" d="M173.331,729.44l-7.781,10.613,16.269,23.039,15.37.1-.209-7.781-6.161-2.728-5.463-13.549Z" transform="translate(-32.743 -144.506)" fill-rule="evenodd"/>
          <path id="Path_66" data-name="Path 66" d="M367.05,146.61H441.9v74.847H367.05Z" transform="translate(-72.597 -29.23)" fill="#e0e0e0" fill-rule="evenodd"/>
          <path id="Path_67" data-name="Path 67" d="M367.05,146.61H441.9v16.718H367.05Z" transform="translate(-72.597 -29.23)" fill="#a4a4a4" fill-rule="evenodd"/>
          <path id="Path_68" data-name="Path 68" d="M259.67,243.268c3.9-.858,17.777-.489,21.491-2.479s49.561-36.34,54.173-41.017,10.316-8.736,14.44-13.822.136,9.009-3.466,11.785c-.417,3.77-.521,11.664-.521,11.664a6.875,6.875,0,0,0-5.447,1.372c-2.6,2.038-40.191,46.28-40.191,46.28S255.771,244.134,259.67,243.268Z" transform="translate(-51.311 -36.794)" fill="#e49d75" fill-rule="evenodd"/>
          <path id="Path_69" data-name="Path 69" d="M210.031,422.405C207.7,431.23,203.22,493,217.01,523.9c-5.985,22.6-36.38,127.913-36.38,127.913l15.114,13.317,77.911-117.925S257.434,418.2,210.031,422.405Z" transform="translate(-35.726 -83.759)" fill="#5fc5d1" fill-rule="evenodd"/>
          <path id="Path_70" data-name="Path 70" d="M298.174,416.777c3.153,8.768,35.37,123.806,35.37,123.806l7.284,139.738-16.67,1.316L272.375,540.927c-6.321-7.164-46.48-103.317-48.285-115.655C231.984,416.881,295.022,408,298.174,416.777Z" transform="translate(-44.322 -81.949)" fill="#6bd5e1" fill-rule="evenodd"/>
          <path id="Path_71" data-name="Path 71" d="M237.339,250.72c6.346,0,42.285,8.712,49.039,22.751,3.714,7.717,20.007,102.066,10.958,116.9s-71.4,14.2-83.559,3.016C206.935,387.112,204.729,250.672,237.339,250.72Z" transform="translate(-41.454 -49.822)" fill="#ffd98e" fill-rule="evenodd"/>
          <path id="Path_72" data-name="Path 72" d="M0,.29H643.143V58.322H0Z" transform="translate(0 -0.29)" fill="#e0e0e0" fill-rule="evenodd"/>
          <path id="Path_73" data-name="Path 73" d="M37.15,115h99.827" transform="translate(-7.348 -22.978)" fill="none" stroke="#fff" stroke-linecap="round" stroke-linejoin="round" stroke-width="12.98"/>
          <path id="Path_74" data-name="Path 74" d="M234.26,230.7h13.766v26.714c-4.95,3.939-13.766,0-13.766,0Z" transform="translate(-46.333 -45.862)" fill="#e49d75" fill-rule="evenodd"/>
          <path id="Path_75" data-name="Path 75" d="M212.31,193.169c0-16.646,11.3-30.139,25.254-30.139s25.246,13.493,25.246,30.139-11.3,30.147-25.246,30.147S212.31,209.815,212.31,193.169Z" transform="translate(-41.992 -32.478)" fill="#e49d75" fill-rule="evenodd"/>
          <path id="Path_76" data-name="Path 76" d="M225.775,156.849c8.086-.184,18.363,4.958,18.363,8.528,0,6.177-9.578,20.184-16.71,25.928,2,4.613,3.827,7.661,3.827,11.576s-6.089,19.253-6.089,29.682c0,8.183,1.829,13.75,1.829,20.537,0,18.539-12.1,29.762-29.594,29.762s-29.249-18.972-29.321-34.375c-.088-18.884,20.858-42.06,25.936-56.3C198.291,180.169,206.386,156.849,225.775,156.849Z" transform="translate(-33.244 -31.254)" fill-rule="evenodd"/>
          <path id="Path_77" data-name="Path 77" d="M233.34,200.981a6.313,6.313,0,1,1,1.846,4.469,6.321,6.321,0,0,1-1.846-4.469Z" transform="translate(-46.151 -38.734)" fill="#e49d75" fill-rule="evenodd"/>
          <path id="Path_78" data-name="Path 78" d="M317.581,292.433c7.092,1.685,36.14,6.554,41.715,4.813s63.014-56.516,67.49-60.567,13.461-9.787,14.544-16.8,0-13.012-9.739-16.526c.185,4.525.361,11.584.168,10.533-1.645-5.455-1.837-11.64-4.813-11.568-1.6,5.1.658,14.721-3.289,21.162-4.532,4.926-64.731,44.427-71.052,46.424-8.247,0-29.393-7.22-29.393-7.22S310.5,290.748,317.581,292.433Z" transform="translate(-62.389 -40.249)" fill="#e49d75" fill-rule="evenodd"/>
          <path id="Path_79" data-name="Path 79" d="M259.232,276.414c4.91-20.617,47.98-9.715,55.224-3.931,2.535,7.854-1.452,31.15-7.781,35.474C297.169,309.337,254,298.347,259.232,276.414Z" transform="translate(-51.186 -52.524)" fill="#ffe4ad" fill-rule="evenodd"/>
          <path id="Path_80" data-name="Path 80" d="M37.15,169.71h75.408" transform="translate(-7.348 -33.799)" fill="none" stroke="#fff" stroke-linecap="round" stroke-linejoin="round" stroke-width="12.98"/>
          <path id="Path_81" data-name="Path 81" d="M37.15,263.7H78.023" transform="translate(-7.348 -52.389)" fill="none" stroke="#fff" stroke-linecap="round" stroke-linejoin="round" stroke-width="12.98"/>
          <path id="Path_82" data-name="Path 82" d="M37.15,299.16h75.408" transform="translate(-7.348 -59.402)" fill="none" stroke="#fff" stroke-linecap="round" stroke-linejoin="round" stroke-width="12.98"/>
          <path id="Path_83" data-name="Path 83" d="M37.15,329.89H104.3" transform="translate(-7.348 -65.48)" fill="none" stroke="#fff" stroke-linecap="round" stroke-linejoin="round" stroke-width="12.98"/>
          <path id="Path_84" data-name="Path 84" d="M634.81,110.64h99.827" transform="translate(-125.557 -22.116)" fill="none" stroke="#fff" stroke-linecap="round" stroke-linejoin="round" stroke-width="12.98"/>
          <path id="Path_85" data-name="Path 85" d="M634.81,144.73H704.6" transform="translate(-125.557 -28.858)" fill="none" stroke="#fff" stroke-linecap="round" stroke-linejoin="round" stroke-width="12.98"/>
          <path id="Path_86" data-name="Path 86" d="M634.81,181h93.747" transform="translate(-125.557 -36.032)" fill="none" stroke="#fff" stroke-linecap="round" stroke-linejoin="round" stroke-width="12.98"/>
          <path id="Path_87" data-name="Path 87" d="M634.81,214h47.25" transform="translate(-125.557 -42.559)" fill="none" stroke="#fff" stroke-linecap="round" stroke-linejoin="round" stroke-width="12.98"/>
          <path id="Path_88" data-name="Path 88" d="M395.552,187.79h-.1l-5.022,2.655-.754-2.952,6.273-3.353h3.305v28.687h-3.706Z" transform="translate(-77.073 -36.653)" fill="#a4a4a4"/>
          <path id="Path_89" data-name="Path 89" d="M433.428,184.18v2.559l-12.5,26.128h-4.011l12.442-25.382V187.4H415.33v-3.209Z" transform="translate(-82.147 -36.661)" fill="#a4a4a4"/>
        </g>
      </g>
    </g>
  </g>
</svg>
