<svg id="Layer_2" data-name="Layer 2" xmlns="http://www.w3.org/2000/svg" width="420.773" height="463.649" viewBox="0 0 420.773 463.649">
  <g id="vector">
    <path id="Path_124" data-name="Path 124" d="M408.671,112.346c25.037,29.589,22.194,82.513,11.948,124.97C410.26,279.879,392.39,312.1,367.354,350.579s-57.22,83.289-99.812,93.649-95.38-13.851-141.813-52.325-86.617-91.426-97.311-154.93C17.731,173.349,36.384,99.029,82.823,69.44S203.575,54.984,267.2,65.685C330.7,76.493,383.627,82.756,408.671,112.346Z" transform="translate(-7.328 -14.999)" fill="#f1f1f1"/>
    <path id="Path_125" data-name="Path 125" d="M277.157,201.69c-.969,4.738.086,38.659-1.318,44.01s-16.978,70.743-16.978,70.743l24.773-6.847s8.685-19.087,11.834-36.273C298.239,258.2,297.84,201.954,277.157,201.69Z" transform="translate(-74.426 -57.989)" fill="#d18c65"/>
    <path id="Path_126" data-name="Path 126" d="M240.589,208.622H224.515L215.31,173.71h16.081Z" transform="translate(-61.905 -49.944)"/>
    <rect id="Rectangle_5" data-name="Rectangle 5" width="174.637" height="174.637" transform="translate(212.206 255.753)" fill="#e0e0e0"/>
    <circle id="Ellipse_12" data-name="Ellipse 12" cx="17.598" cy="17.598" r="17.598" transform="translate(226.948 273.002)" fill="#a4a4a4"/>
    <line id="Line_8" data-name="Line 8" x2="89.224" transform="translate(276.935 283.056)" fill="none" stroke="#fff" stroke-linecap="round" stroke-linejoin="round" stroke-width="2.04"/>
    <line id="Line_9" data-name="Line 9" x2="39.557" transform="translate(276.935 298.139)" fill="none" stroke="#fff" stroke-linecap="round" stroke-linejoin="round" stroke-width="2.04"/>
    <line id="Line_10" data-name="Line 10" x2="89.224" transform="translate(276.935 335.53)" fill="none" stroke="#fff" stroke-linecap="round" stroke-linejoin="round" stroke-width="2.04"/>
    <line id="Line_11" data-name="Line 11" x2="39.557" transform="translate(276.935 350.613)" fill="none" stroke="#fff" stroke-linecap="round" stroke-linejoin="round" stroke-width="2.04"/>
    <line id="Line_12" data-name="Line 12" x2="89.224" transform="translate(276.935 387.997)" fill="none" stroke="#fff" stroke-linecap="round" stroke-linejoin="round" stroke-width="2.04"/>
    <line id="Line_13" data-name="Line 13" x2="39.557" transform="translate(276.935 403.081)" fill="none" stroke="#fff" stroke-linecap="round" stroke-linejoin="round" stroke-width="2.04"/>
    <circle id="Ellipse_13" data-name="Ellipse 13" cx="17.598" cy="17.598" r="17.598" transform="translate(226.948 325.47)" fill="#fff"/>
    <circle id="Ellipse_14" data-name="Ellipse 14" cx="17.598" cy="17.598" r="17.598" transform="translate(226.948 377.944)" fill="#fff"/>
    <path id="Path_127" data-name="Path 127" d="M63.83,585.745l16.423-9.455,10.388,19.023-19.13,9.448Z" transform="translate(-18.352 -165.693)" fill="#e49d75"/>
    <path id="Path_128" data-name="Path 128" d="M232.94,573.622l3.662,21.025,22.208-3.776-7.324-23.861Z" transform="translate(-66.974 -163.025)" fill="#e49d75"/>
    <path id="Path_129" data-name="Path 129" d="M263.025,341.25c-6.541.356-113.862,23.662-115.259,29.126-11.492,44.829,54.149,138.934,58.972,141.784,5.2-1.254,22.949-7.438,22.949-7.438l-4.075-62.749Z" transform="translate(-42.098 -98.115)" fill="#5fc5d1"/>
    <path id="Path_130" data-name="Path 130" d="M58,595.557l-13.11-27.4L9.212,534.02,0,539.093l35.318,67.686Z" transform="translate(0 -153.539)"/>
    <path id="Path_131" data-name="Path 131" d="M242.421,593.43l-29.91,5.329L170.09,624.031l2.444,10.238,74.654-15.988Z" transform="translate(-48.904 -170.621)"/>
    <path id="Path_132" data-name="Path 132" d="M327.376,302.23c4.175,3.342,8.55,18.4,9.056,23.512,5.465,59.264-92.081,94.162-105.59,100.019-12.825,10.723-124.685,93.186-131.5,95.138S81.37,496.674,82.346,493.176s164.926-168.31,164.926-168.31Z" transform="translate(-23.658 -86.896)" fill="#6bd5e1"/>
    <path id="Path_133" data-name="Path 133" d="M305.933,152.166c-13.8-6.818-26.561,30.58-25.336,34.862s13.893,5.508,17.1,5.508S305.933,152.166,305.933,152.166Z" transform="translate(-80.653 -43.512)" fill="#ffc78e"/>
    <path id="Path_134" data-name="Path 134" d="M334.727,122.39c50.373,0,55.125,120.089,54.555,128.283-5.087,16.7-66.1,36.764-84.885,25.785C274.593,206.577,288.323,122.39,334.727,122.39Z" transform="translate(-82.985 -35.189)" fill="#ffd98e"/>
    <path id="Path_135" data-name="Path 135" d="M365.149,205.49c2.814,4.8,8.87,36.094,8.265,40.177s-9.975,14.385-13.309,14.613c-47.409,3.22-98.829-15.725-108.44-21.047-20.106-1.6-32-8.863-32-19.479,0-6.27,3.477-10.787,5.394-10.787,3.634,0,10.089,6.263,10.873,8.094-1.567-3.22-6.484-9.134-2.437-9.134,1.126,0,10.26,12.768,15.219,15.867s76.528,5.7,90.877,10.915c-1.831-3.648-6.961-16.872-7.046-18.781S365.149,205.49,365.149,205.49Z" transform="translate(-63.156 -59.082)" fill="#e49d75"/>
    <rect id="Rectangle_6" data-name="Rectangle 6" width="38.275" height="38.275" rx="7.68" transform="translate(130.025 73.289) rotate(-11.24)" fill="#6bd5e1"/>
    <path id="Path_136" data-name="Path 136" d="M211.438,115.351l-.855-4.275a3.263,3.263,0,0,0-3.847-2.572L204.363,119l2.344,11.777,12.112-2.4a2.18,2.18,0,0,0,1.781-2.244l-.435-9.975a2.187,2.187,0,0,0-2.287-2.08,2.921,2.921,0,0,0-.349.043Zm-4.731,15.411-3.213.641a2.18,2.18,0,0,1-2.565-1.717l-1.5-7.5a2.187,2.187,0,0,1,1.717-2.572l3.213-.634" transform="translate(-57.328 -31.178)" fill="none" stroke="#fff" stroke-linecap="round" stroke-linejoin="round" stroke-width="2.04"/>
    <path id="Path_137" data-name="Path 137" d="M219.02,158.7l3.334-9.818L212.18,150.9Z" transform="translate(-61.005 -42.805)" fill="#6bd5e1"/>
    <path id="Path_138" data-name="Path 138" d="M369.253,135.474c21.809-7.994,39.051,42.393,38.346,48.777s-35.624,17.563-39.557,15.254S347.636,143.4,369.253,135.474Z" transform="translate(-103.026 -38.705)" fill="#ffe4ad"/>
    <path id="Path_139" data-name="Path 139" d="M346.794,91.72c-.235,3.028,1.61,19.95,4.5,25.471-1.275,2.508-14.385,9.8-20.662,8.236-.855-4.688-3.128-17.278-4.987-21.111C329,102.564,346.794,91.72,346.794,91.72Z" transform="translate(-93.627 -26.371)" fill="#d18c65"/>
    <ellipse id="Ellipse_15" data-name="Ellipse 15" cx="28.599" cy="35.845" rx="28.599" ry="35.845" transform="translate(191.03 18.08) rotate(-14.86)" fill="#e49d75"/>
    <path id="Path_140" data-name="Path 140" d="M313.757,44.922c-1.582.085-7.616-2.992-8.956-12.226-4.353-.712-23.548,1.332-33.608,9.262-3.726,1.425-6.747,2.615-12.383,2.615a5.392,5.392,0,0,1-4.938-4.71c0-5.28,2.266-10.4,8.885-10.737-5.572-.121-10.737-3.562-10.737-6.1,0-3.37,7.659-13.708,21.018-9.177-3.135-2.266-6.676-4.474-6.676-6.619,0-3.669,5.28-7.232,14.513-7.232,14.285,0,29.853,5.921,33.216,10.16,1.567-.812,3.562-2.323,7.381-2.323,9.519,0,12.711,30.836,8.593,41.174a9.041,9.041,0,0,1-3.356,1.3" transform="translate(-72.46)" fill="#fd8369"/>
    <path id="Path_141" data-name="Path 141" d="M338.27,62.1a7.032,7.032,0,1,1,3.562,8.657" transform="translate(-97.258 -16.504)" fill="#e49d75"/>
  </g>
</svg>
