<svg xmlns="http://www.w3.org/2000/svg" width="294.027" height="223.399" viewBox="0 0 294.027 223.399">
  <g id="drawkit-folder-woman-colour" transform="translate(-129.23 -214.94)">
    <rect id="Rectangle_7" data-name="Rectangle 7" width="147.582" height="174.796" transform="translate(129.23 214.94)" fill="#f3f3f3"/>
    <path id="Path_142" data-name="Path 142" d="M388.393,501.294l41.258-24.375L426.636,465.5H390.965v-3.448a.954.954,0,0,0-.954-.954h-9.127a.954.954,0,0,0-.954.954V465.5l5.876,35.792Z" transform="translate(-170.624 -176.883)" fill="#d0cbcb"/>
    <rect id="Rectangle_8" data-name="Rectangle 8" width="50.154" height="35.514" rx="12.04" transform="translate(215.811 291.222)" fill="#dfdfdf"/>
    <path id="Path_143" data-name="Path 143" d="M129.23,485.99h47.913V521.5H129.23" transform="translate(0 -194.768)" fill="none" stroke="#dfdfdf" stroke-miterlimit="10" stroke-width="6" stroke-dasharray="18"/>
    <path id="Path_144" data-name="Path 144" d="M662,823.22c-4.312,0-40.731,46.017-40.731,52.208H661s15.76-11.8,18.071-16S662,823.22,662,823.22Z" transform="translate(-334.131 -437.092)" fill="#56cad8"/>
    <path id="Path_145" data-name="Path 145" d="M808.431,791c.515,3.377,9.994,61.279,9.994,61.279H785.7S767.618,816.286,766,800.07C774.724,794.512,808.431,791,808.431,791Z" transform="translate(-428.515 -413.94)" fill="#74d5de"/>
    <path id="Path_146" data-name="Path 146" d="M764.492,539.2c21.763-.726,27.58,67.231,25.875,70.858-2.026,4.348-33.406,12.946-42.442,9.07C743.41,617.191,728.089,540.408,764.492,539.2Z" transform="translate(-416.263 -232.996)" fill="#fed385"/>
    <path id="Path_147" data-name="Path 147" d="M765.142,539.2c21.763-.726,28.537,66.871,25.875,70.858s-38.573,12.1-42.431,9.07S728.739,540.408,765.142,539.2Z" transform="translate(-416.877 -232.996)" fill="#fed385"/>
    <path id="Path_148" data-name="Path 148" d="M608.866,549.619c-1.663,0-10.191,2.443-17.167,6.5-17.522-15.963-21.839-30.938-31.2-30.676-4.421,0-8.373.622-8.373,4.106s4.109,6.192,10.661,6.192c1.092,4.418,15.76,38.528,26.257,38.528,7.278,0,27.766-8.111,27.766-9.932S610.251,549.619,608.866,549.619Z" transform="translate(-286.622 -223.115)" fill="#de8e68"/>
    <path id="Path_149" data-name="Path 149" d="M755.53,584.438c3.4,4.221-11.6,24.628-15.023,24.515s-15.391-14.823-14.252-19.042S750.38,578.052,755.53,584.438Z" transform="translate(-408.194 -263.75)" fill="#fed892"/>
    <path id="Path_150" data-name="Path 150" d="M809.654,483c0,.656.259,15.048,2.175,19.345,0,1.252-13.759,2.071-13.759-.312V491.558" transform="translate(-458.843 -192.62)" fill="#d37c59"/>
    <ellipse id="Ellipse_17" data-name="Ellipse 17" cx="11" cy="17" rx="11" ry="17" transform="translate(328.23 266.682)" fill="#de8e68"/>
    <path id="Path_151" data-name="Path 151" d="M774.877,410.012H774.6V401.85c-.844-1.126-9.006-3.659-10.976-4.5s-5.347-1.97-7.6-5.347a26.243,26.243,0,0,0-2.049,7.866c-.844-.844-2.173-2.237-2.173-6.74,0-8.161,8.161-12.946,15.2-12.946,11.257,0,17.73,11.539,17.73,16.6C784.727,404.1,779.661,410.012,774.877,410.012Z" transform="translate(-425.427 -118.737)"/>
    <circle id="Ellipse_18" data-name="Ellipse 18" cx="3.025" cy="3.025" r="3.025" transform="translate(345.356 282.931)" fill="#de8e68"/>
    <path id="Path_152" data-name="Path 152" d="M856.943,330.83c1.818,0,16.225,4.852,20.015,4.852s11.3-.909,13.725-.909c4.767,0,16.073,5.488,16.073,15.087,0,6.69-5.178,10.4-10.993,13.345-2.265,1.145-4.275,6.025-12.36,6.025-13.036,0-20.575-18.31-32.3-18.31-1.365,0-5.769.6-5.769,2.251s-2.814-.822-2.814-1.6C842.531,345,846.542,330.83,856.943,330.83Z" transform="translate(-483.5 -83.275)"/>
    <rect id="Rectangle_9" data-name="Rectangle 9" width="147.582" height="14.567" transform="translate(129.23 214.94)" fill="#dfdfdf"/>
  </g>
</svg>
