<svg xmlns="http://www.w3.org/2000/svg" xmlns:xlink="http://www.w3.org/1999/xlink" width="489" height="489" viewBox="0 0 489 489">
  <defs>
    <clipPath id="clip-path">
      <circle id="Ellipse_1" data-name="Ellipse 1" cx="244.5" cy="244.5" r="244.5" fill="#fff" stroke="#707070" stroke-width="1"/>
    </clipPath>
  </defs>
  <g id="Mask_Group_1" data-name="Mask Group 1" clip-path="url(#clip-path)">
    <g id="Layer_2" data-name="Layer 2" transform="translate(1.116 167.102)">
      <g id="vector">
        <path id="Path_1" data-name="Path 1" d="M21.244,202.152c3.185,0,3.957-3.473,7.966-3.473,2.5,0,7.719,1.42,7.719,3.854h0L34.3,220.939H19.762l-3.026-20.347C17.106,201.74,18.789,202.152,21.244,202.152Z" transform="translate(433.387 22.521)" fill="#ffe4ad"/>
        <path id="Path_2" data-name="Path 2" d="M84.606,325.55c-6.268-9.263-8.882-16.626-8.882-19.529,0-28.714,97.087-59.368,194.513-65,.015-14.444,69.7-110.584,110.559-110.584,29.064,0,49,18.525,49,61.236,0,54.073-21.324,99.794-51.721,133.874Z" transform="translate(-25.336 14.576)" fill="#e0e0e0"/>
        <path id="Path_3" data-name="Path 3" d="M346.484,218.706c-3.952,0-6.041-37.868-6.041-42.047s9.036-43.74,36.427-43.74c10.328,0,17.666,10.775,17.666,24.247,0,18.633-25.405,32.475-29.331,36.669C358.437,201.045,354.846,218.706,346.484,218.706Z" transform="translate(-285.618 14.865)" fill="#fd8369"/>
        <path id="Path_4" data-name="Path 4" d="M435.69,239.236c2.449,0,9.088-18.371,9.088-33.551,0-17.691-16.132-39.34-18.293-47.151-3.823-13.853-10.122-40.889-29.331-40.889-10.909,0-17.362,11.98-17.362,24.422,0,11.98,11.681,22.348,22.189,34.256,10.292,11.671,9.1,21.51,14.83,35.789C422.676,226.7,432.263,239.236,435.69,239.236Z" transform="translate(-379.791 13.086)" fill="#ffd98e"/>
        <path id="Path_5" data-name="Path 5" d="M423.44,233.6c3.556-20.99-18.957-83.79-36.057-101.373" transform="translate(-367.304 14.784)" fill="none" stroke="#fd8369" stroke-linecap="round" stroke-linejoin="round" stroke-width="1.097"/>
        <path id="Path_6" data-name="Path 6" d="M386.242,146.346c-3.443,2.84-23.5,36.273-25,52.385" transform="translate(-300.548 16.428)" fill="none" stroke="#ffd98e" stroke-linecap="round" stroke-linejoin="round" stroke-width="1.097"/>
        <path id="Path_7" data-name="Path 7" d="M391.616,219.539h-27.51l13.755,95.636h27.885l13.75-95.636h-27.5" transform="translate(-336.997 24.95)" fill="#c9c9c9"/>
        <path id="Path_8" data-name="Path 8" d="M173.57,112.293c0,43.678-13.379,43.467-13.379,49.812,0,12.468,6.232,11.012,6.232,11.012S230.606,166.86,173.57,112.293Z" transform="translate(112.967 12.463)"/>
        <line id="Line_1" data-name="Line 1" y1="39.88" transform="translate(430.101)" fill="none" stroke="#c4c4c4" stroke-linecap="round" stroke-linejoin="round" stroke-width="1.097"/>
        <line id="Line_2" data-name="Line 2" y1="39.88" transform="translate(171.043)" fill="none" stroke="#c4c4c4" stroke-linecap="round" stroke-linejoin="round" stroke-width="1.097"/>
        <circle id="Ellipse_2" data-name="Ellipse 2" cx="8.799" cy="8.799" r="8.799" transform="translate(421.301 63.042)" fill="#ffe4ad"/>
        <circle id="Ellipse_3" data-name="Ellipse 3" cx="8.799" cy="8.799" r="8.799" transform="translate(162.244 63.042)" fill="#ffe4ad"/>
        <path id="Path_9" data-name="Path 9" d="M222.573,269.744c3.35-5.835,124.53-43.169,138.5-43.74,26.244-4.446,43.518,9.885,49.879,22.384-24.438,5.491-53.517,13.523-60.922,16.575h-1.811c-1.029-.057-2.2-.067-3.54-.031-9.216-.108-16.9-.324-21.052-.571-12.587,4.693-94.57,22.832-96.588,21.736S221.086,272.328,222.573,269.744Z" transform="translate(-170.07 25.607)" fill="#5fc5d1"/>
        <path id="Path_10" data-name="Path 10" d="M201.543,252.464c-7.441.35-22.4,3.334-38.234,7.055-9.664-9.4-16.945-22.23-16.245-37.565,14.923-34.395,74.615-78.86,99.572-78.84,3.751,3.088,4.575,25.59,7.42,38.7,1.029,4.806-3.9,18.7-11.321,34.441C225.723,229.148,209.405,243.942,201.543,252.464Z" transform="translate(70.673 16.052)" fill="#ffd98e"/>
        <path id="Path_11" data-name="Path 11" d="M397.24,268.323,386.6,271.055l3.273,10.708,10.544-1.9Z" transform="translate(-343.038 30.631)" fill="#e49d75"/>
        <path id="Path_12" data-name="Path 12" d="M159.671,137.242c.2,2.491.067,12.906-1.178,17.949C162.027,155.129,183.125,135.734,159.671,137.242Z" transform="translate(141.465 15.358)" fill="#e49d75"/>
        <ellipse id="Ellipse_4" data-name="Ellipse 4" cx="18.654" cy="24.443" rx="18.654" ry="24.443" transform="translate(287.422 106.313)" fill="#e49d75"/>
        <path id="Path_13" data-name="Path 13" d="M153.227,89.782c24.319,0,33.963,35.2,33.963,54.546,0,17.336-6.51,21.978-9.479,23.4s-10.462,1.683-15.242,2.84c-6.124,1.487-9.448,7.106-15.108,7.106-4.395,0-6.983-4.266-6.983-7.719,0-13.992,23.408-25.729,23.408-46.549C159.3,121.861,142.5,109.63,142.5,104.762c0,3.3-8.594,12.278-10.045,12.916C131.821,115.573,135.335,89.782,153.227,89.782Z" transform="translate(154.006 9.842)"/>
        <rect id="Rectangle_2" data-name="Rectangle 2" width="27.16" height="48.489" transform="translate(243.664 241.143) rotate(176.71)" fill="#e0e0e0"/>
        <path id="Path_14" data-name="Path 14" d="M252.472,208.765,271.033,223.1l-2.784-48.412-18.561-14.331Z" transform="translate(-60.794 18.059)" fill="#c9c9c9"/>
        <line id="Line_3" data-name="Line 3" x1="27.196" y2="4.199" transform="translate(212.009 189.671)" fill="none" stroke="#d3d3d3" stroke-linecap="round" stroke-linejoin="round" stroke-width="1.097"/>
        <line id="Line_4" data-name="Line 4" x2="13.22" y2="16.323" transform="translate(197.513 177.547)" fill="none" stroke="#d3d3d3" stroke-linecap="round" stroke-linejoin="round" stroke-width="1.097"/>
        <line id="Line_5" data-name="Line 5" x2="15.685" y2="14.45" transform="translate(193.973 178.978)" fill="none" stroke="#d3d3d3" stroke-linecap="round" stroke-linejoin="round" stroke-width="1.097"/>
        <path id="Path_15" data-name="Path 15" d="M352.516,266.728l-5.228,7.683-7.431-4.58,4.41-7.431Z" transform="translate(-242.945 29.941)" fill="#e49d75"/>
        <path id="Path_16" data-name="Path 16" d="M56.283,36.27A33.72,33.72,0,0,1,90,69.985l-67.442.005A33.721,33.721,0,0,1,56.283,36.27Z" transform="translate(373.817 3.611)" fill="#fd8369"/>
        <path id="Path_17" data-name="Path 17" d="M288.292,36.27A33.716,33.716,0,0,1,322.007,69.99H254.6a33.721,33.721,0,0,1,33.7-33.721Z" transform="translate(-117.249 3.611)" fill="#fd8369"/>
        <line id="Line_6" data-name="Line 6" x1="103.349" transform="translate(385.038 244.49)" fill="none" stroke="#c4c4c4" stroke-linecap="round" stroke-linejoin="round" stroke-width="1.097"/>
        <line id="Line_7" data-name="Line 7" y2="95.636" transform="translate(436.713 244.49)" fill="none" stroke="#c4c4c4" stroke-linecap="round" stroke-linejoin="round" stroke-width="1.097"/>
        <rect id="Rectangle_3" data-name="Rectangle 3" width="23.537" height="12.854" transform="translate(409.533 230.606)" fill="none" stroke="#fd8369" stroke-linecap="round" stroke-linejoin="round" stroke-width="1.097"/>
        <circle id="Ellipse_5" data-name="Ellipse 5" cx="4.858" cy="4.858" r="4.858" transform="translate(314.478 130.756)" fill="#e49d75"/>
        <path id="Path_18" data-name="Path 18" d="M246.812,221.6l6.319,1.559-2.784-48.407-6.319-1.564Z" transform="translate(-36.573 19.554)" fill="#d3d3d3"/>
        <path id="Path_19" data-name="Path 19" d="M379.237,273.376,375.4,283.991l-32.177-8.166,1.225-6.211,26.131-1.863Z" transform="translate(-273.423 30.564)"/>
        <path id="Path_20" data-name="Path 20" d="M422.868,282.665l-10.194,4.858L395.517,259.1l5.233-3.556,19.9,17.043Z" transform="translate(-375.438 29.142)"/>
        <path id="Path_21" data-name="Path 21" d="M274.633,168.509c24.885,5.66,67.889,51.459,89.136,84.948-15.4,3.252-33.963,7.94-48.037,11.887-21.412-16.662-37.05-43.225-39.366-46.4-5.846,11.9-47.383,60.361-50.429,60.361s-8-2.161-9.952-5.841C217.735,263.085,261.439,166.626,274.633,168.509Z" transform="translate(-115.904 19.005)" fill="#6bd5e1"/>
        <path id="Path_22" data-name="Path 22" d="M208.819,223.407c-19.282-1.755-56.7-8.63-59.9-9.309-4.024-.849-7.678-13.41-4.142-20.846,1.22-2.192,2.573-2.249,3.6-2.007s3.484,9.293,5.99,9.777,48.829,3.252,52.745,3.427c.515-2.439,5.223-20.11,6.355-21.5s25.678,10.95,25.678,10.95a84.65,84.65,0,0,1-3.952,9.345C226.325,209.317,217.161,216.449,208.819,223.407Z" transform="translate(89.82 20.677)" fill="#e49d75"/>
        <path id="Path_23" data-name="Path 23" d="M164.677,150.307c-8.048-2.851-26.156,7.281-31.549,36,3.088,4.317,20.069,13.755,29.933,13.616C167.373,196.105,181.8,156.348,164.677,150.307Z" transform="translate(167.524 16.835)" fill="#ffe4ad"/>
        <path id="Path_24" data-name="Path 24" d="M15.219,191.511l4.5,30.263H34.254l4.323-30.263" transform="translate(433.432 21.687)" fill="none" stroke="#fd8369" stroke-linecap="round" stroke-linejoin="round" stroke-width="1.097"/>
      </g>
    </g>
  </g>
</svg>
