<svg xmlns="http://www.w3.org/2000/svg" width="25.565" height="25.559" viewBox="0 0 25.565 25.559">
  <g id="Group_6" data-name="Group 6" transform="translate(-841 -110)">
    <g id="download" transform="translate(841 110)">
      <g id="Group_2" data-name="Group 2" transform="translate(0 0)">
        <g id="Group_1" data-name="Group 1">
          <path id="Path_29" data-name="Path 29" d="M23.624,8.647a7.107,7.107,0,0,0,.121-1.295A7.3,7.3,0,0,0,9.572,4.871a3.652,3.652,0,0,0-4.9,2.541,5.479,5.479,0,0,0,.813,10.9h4.566a.913.913,0,1,0,0-1.826H5.482a3.652,3.652,0,1,1,0-7.3A.913.913,0,0,0,6.4,8.265a1.826,1.826,0,0,1,3.1-1.3.913.913,0,0,0,1.542-.5,5.473,5.473,0,1,1,10.8,1.795q-.044.267-.115.528a.913.913,0,0,0,.377,1,3.652,3.652,0,0,1-2.011,6.7H17.353a.913.913,0,0,0,0,1.826h2.739a5.479,5.479,0,0,0,3.532-9.663Z" transform="translate(-0.001 -0.056)" fill="#8698e3"/>
        </g>
      </g>
      <g id="Group_4" data-name="Group 4" transform="translate(8.232 8.209)">
        <g id="Group_3" data-name="Group 3">
          <path id="Path_30" data-name="Path 30" d="M164.523,164.716a.913.913,0,0,0-1.269,0l-3.009,3.007V154.4a.913.913,0,1,0-1.826,0v13.319l-3.007-3.007a.913.913,0,0,0-1.291,1.291l4.566,4.566a.913.913,0,0,0,1.291,0l0,0,4.566-4.566A.913.913,0,0,0,164.523,164.716Z" transform="translate(-153.865 -153.491)" fill="#8698e3"/>
        </g>
      </g>
    </g>
  </g>
</svg>
