<svg xmlns="http://www.w3.org/2000/svg" width="25" height="25.022" viewBox="0 0 25 25.022">
  <g id="home" transform="translate(-0.208 0)">
    <g id="Group_5" data-name="Group 5" transform="translate(0.208 0)">
      <path id="Path_31" data-name="Path 31" d="M24.957,11.878l-1.786-1.786L13.34.261a.894.894,0,0,0-1.264,0l-9.83,9.83L.459,11.879a.894.894,0,0,0,1.264,1.264l.261-.263V24.128a.894.894,0,0,0,.894.894H22.538a.894.894,0,0,0,.894-.894V12.88l.262.262a.894.894,0,0,0,1.264-1.264ZM15.389,23.234H10.026V16.085h5.362Zm6.256,0H17.176V15.191a.894.894,0,0,0-.894-.894H9.133a.894.894,0,0,0-.894.894v8.043H3.771V11.093l8.937-8.937,8.937,8.937Z" transform="translate(-0.208 0)" fill="#3ee6c0"/>
    </g>
  </g>
</svg>
