<svg xmlns="http://www.w3.org/2000/svg" width="25.571" height="25.571" viewBox="0 0 25.571 25.571">
  <g id="open-menu" transform="translate(0.5 0.5)">
    <path id="Path_25" data-name="Path 25" d="M8.35,11.518H3.167A3.171,3.171,0,0,1,0,8.35V3.167A3.171,3.171,0,0,1,3.167,0H8.35a3.171,3.171,0,0,1,3.167,3.167V8.35A3.171,3.171,0,0,1,8.35,11.518ZM3.167,1.536A1.633,1.633,0,0,0,1.536,3.167V8.35A1.633,1.633,0,0,0,3.167,9.982H8.35A1.633,1.633,0,0,0,9.982,8.35V3.167A1.633,1.633,0,0,0,8.35,1.536Z" fill="#fa897b" stroke="#fa897b" stroke-width="1"/>
    <path id="Path_26" data-name="Path 26" d="M280.35,11.518h-5.183A3.171,3.171,0,0,1,272,8.35V3.167A3.171,3.171,0,0,1,275.167,0h5.183a3.171,3.171,0,0,1,3.167,3.167V8.35A3.171,3.171,0,0,1,280.35,11.518Zm-5.183-9.982a1.634,1.634,0,0,0-1.632,1.632V8.35a1.634,1.634,0,0,0,1.632,1.632h5.183a1.633,1.633,0,0,0,1.632-1.632V3.167a1.633,1.633,0,0,0-1.632-1.632Z" transform="translate(-258.947)" fill="#3ee6c0" stroke="#3ee6c0" stroke-width="1"/>
    <path id="Path_27" data-name="Path 27" d="M277.759,283.518a5.759,5.759,0,1,1,5.759-5.759A5.765,5.765,0,0,1,277.759,283.518Zm0-9.982a4.223,4.223,0,1,0,4.223,4.223A4.228,4.228,0,0,0,277.759,273.536Z" transform="translate(-258.947 -258.947)" fill="#8698e3" stroke="#8698e3" stroke-width="1"/>
    <path id="Path_28" data-name="Path 28" d="M8.35,283.518H3.167A3.171,3.171,0,0,1,0,280.35v-5.183A3.171,3.171,0,0,1,3.167,272H8.35a3.171,3.171,0,0,1,3.167,3.167v5.183A3.171,3.171,0,0,1,8.35,283.518Zm-5.183-9.982a1.634,1.634,0,0,0-1.632,1.632v5.183a1.633,1.633,0,0,0,1.632,1.632H8.35a1.633,1.633,0,0,0,1.632-1.632v-5.183a1.634,1.634,0,0,0-1.632-1.632Z" transform="translate(0 -258.947)" fill="#ffdd94" stroke="#ffdd94" stroke-width="1"/>
  </g>
</svg>
