<svg xmlns="http://www.w3.org/2000/svg" width="38.415" height="42.91" viewBox="0 0 38.415 42.91">
  <path id="google" d="M47.639,18.4,16.267.463A3.516,3.516,0,0,0,14.522,0l-.036,0c-.081,0-.162,0-.242.011l-.109.011q-.094.01-.188.026c-.023,0-.046.005-.068.009v0A3.517,3.517,0,0,0,11,3.522V39.388a3.518,3.518,0,0,0,2.881,3.461h0c.02,0,.041.005.061.008q.1.017.2.028l.1.01c.079.006.159.01.238.011l.04,0a3.516,3.516,0,0,0,1.745-.463L47.639,24.514a3.521,3.521,0,0,0,1.774-3.057h0A3.522,3.522,0,0,0,47.639,18.4ZM35.233,14.835l-3.119,4.092L24.177,8.515Zm10.886,7.018L24.177,34.395,37.915,16.371l8.2,4.689a.456.456,0,0,1,0,.792Z" transform="translate(-10.998)" fill="#b1adad"/>
</svg>
